<svg width="512" height="512" viewBox="0 0 512 512" fill="none" xmlns="http://www.w3.org/2000/svg">
<g clip-path="url(#clip0_4_155)">
<path d="M256 512C397.385 512 512 397.385 512 256C512 114.615 397.385 0 256 0C114.615 0 0 114.615 0 256C0 397.385 114.615 512 256 512Z" fill="#00ADB5"/>
<path d="M76 304V128.364C76 123.364 79.22 120 84 120H412C416.784 120 420 123.36 420 128.364V304H76Z" fill="#1E2C33"/>
<path d="M76 304V336C76 340.78 79.22 344 84 344H412C416.784 344 420 340.78 420 336V304H76Z" fill="#F5F5F5"/>
<path d="M404 140H92V288H404V140Z" fill="#586874"/>
<path d="M292 344H204V380H292V344Z" fill="#E6E6E6"/>
<path d="M320 388C320 383.6 316.4 380 312 380H184C179.6 380 176 383.6 176 388C176 392.4 179.6 396 184 396H312C316.4 396 320 392.4 320 388Z" fill="#F5F5F5"/>
<path d="M248 332C252.418 332 256 328.418 256 324C256 319.582 252.418 316 248 316C243.582 316 240 319.582 240 324C240 328.418 243.582 332 248 332Z" fill="#1E2C33"/>
<path d="M436 388C436 392 432 396 428 396H348C344 396 340 393.6 340 388.4V248C340 244 344 240 348 240H428C432 240 436 244 436 248V388Z" fill="#E6E6E6"/>
<path d="M432 256H344V372H432V256Z" fill="#1E2C33"/>
<path d="M428 260H348V368H428V260Z" fill="#586874"/>
<path d="M388 246C389.105 246 390 245.105 390 244C390 242.895 389.105 242 388 242C386.895 242 386 242.895 386 244C386 245.105 386.895 246 388 246Z" fill="#263740"/>
<path d="M398.32 252H377.78C376.796 252 376 250.992 376 250C376 249.016 376.796 248 377.78 248H398.32C399.308 248 400.1 249.016 400.1 250C400.1 250.992 399.308 252 398.32 252Z" fill="#263740"/>
<path d="M387.996 376C383.584 376 380.004 379.584 380.004 384C380.004 388.408 383.588 392 387.996 392C392.412 392 396.004 388.408 396.004 384C396.004 379.584 392.416 376 387.996 376Z" fill="#263740"/>
<path d="M340 268C337.788 268 336 266.212 336 264V256C336 253.788 337.788 252 340 252C342.212 252 344 253.788 344 256V264C344 266.212 342.212 268 340 268Z" fill="#E6E6E6"/>
<path d="M340 288C337.788 288 336 286.212 336 284V280C336 277.788 337.788 276 340 276C342.212 276 344 277.788 344 280V284C344 286.212 342.212 288 340 288Z" fill="#E6E6E6"/>
<path d="M340 304C337.788 304 336 302.212 336 300V296C336 293.788 337.788 292 340 292C342.212 292 344 293.788 344 296V300C344 302.212 342.212 304 340 304Z" fill="#E6E6E6"/>
<path d="M420 244H416C413.788 244 412 242.212 412 240C412 237.788 413.788 236 416 236H420C422.212 236 424 237.788 424 240C424 242.212 422.212 244 420 244Z" fill="#E6E6E6"/>
</g>
<defs>
<clipPath id="clip0_4_155">
<rect width="512" height="512" fill="white"/>
</clipPath>
</defs>
</svg>
