<svg width="30" height="30" viewBox="0 0 30 30" fill="none" xmlns="http://www.w3.org/2000/svg">
<path d="M9.57504 12.6278L14.7 5.00277C15.2 4.25277 16.45 3.75277 17.45 4.12777C18.575 4.50277 19.325 5.75277 19.075 6.87777L18.45 10.8778C18.325 11.7528 18.95 12.3778 19.7 12.3778H24.7C26.575 12.3778 27.7251 13.8153 27.075 15.6278C26.425 17.4403 25.8501 20.6903 24.075 23.5028C23.2627 24.7898 22.3719 25.6903 20.8501 25.6903C15.8501 25.6903 8.32504 25.6903 8.32504 25.6903" stroke="#EEEEEE" stroke-miterlimit="10"/>
<path d="M2.72506 13.1902C2.72506 12.4999 3.28471 11.9403 3.97506 11.9403H8.35006C9.04043 11.9403 9.60006 12.4999 9.60006 13.1902V25.6902H3.97506C3.28471 25.6902 2.72506 25.1306 2.72506 24.4402V13.1902Z" stroke="#EEEEEE"/>
</svg>
