<svg width="80" height="80" viewBox="0 0 80 80" fill="none" xmlns="http://www.w3.org/2000/svg">
<path opacity="0.5" d="M40.0001 73.3333C58.4094 73.3333 73.3334 58.4093 73.3334 40C73.3334 21.5905 58.4094 6.66666 40.0001 6.66666C21.5906 6.66666 6.66675 21.5905 6.66675 40C6.66675 58.4093 21.5906 73.3333 40.0001 73.3333Z" fill="#393E46"/>
<path d="M53.3334 37.5H42.5001V26.6667C42.5001 25.3 41.3667 24.1667 40.0001 24.1667C38.6334 24.1667 37.5001 25.3 37.5001 26.6667V37.5H26.6667C25.3001 37.5 24.1667 38.6333 24.1667 40C24.1667 41.3667 25.3001 42.5 26.6667 42.5H37.5001V53.3333C37.5001 54.7 38.6334 55.8333 40.0001 55.8333C41.3667 55.8333 42.5001 54.7 42.5001 53.3333V42.5H53.3334C54.7001 42.5 55.8334 41.3667 55.8334 40C55.8334 38.6333 54.7001 37.5 53.3334 37.5Z" fill="#393E46"/>
</svg>
