<svg width="30" height="30" viewBox="0 0 30 30" fill="none" xmlns="http://www.w3.org/2000/svg">
<path d="M20.425 17.3722L15.3 24.9972C14.8 25.7472 13.55 26.2472 12.55 25.8722C11.425 25.4972 10.675 24.2472 10.925 23.1222L11.55 19.1222C11.675 18.2472 11.05 17.6222 10.3 17.6222H5.3C3.425 17.6222 2.27488 16.1847 2.925 14.3722C3.575 12.5597 4.14988 9.30974 5.925 6.49724C6.73725 5.21024 7.62813 4.30974 9.14988 4.30974C14.1499 4.30974 21.675 4.30974 21.675 4.30974" stroke="#EEEEEE" stroke-miterlimit="10"/>
<path d="M27.2749 16.8098C27.2749 17.5001 26.7153 18.0597 26.0249 18.0597H21.6499C20.9596 18.0597 20.3999 17.5001 20.3999 16.8098V4.30976H26.0249C26.7153 4.30976 27.2749 4.86938 27.2749 5.55976V16.8098Z" stroke="#EEEEEE"/>
</svg>
