<svg width="40" height="40" viewBox="0 0 60 60" fill="none" xmlns="http://www.w3.org/2000/svg">
<g opacity="0.5">
<path d="M30.2999 31.95C30.1249 31.925 29.8999 31.925 29.6999 31.95C25.2999 31.8 21.7998 28.2 21.7998 23.775C21.7998 19.25 25.4499 15.575 29.9999 15.575C34.5249 15.575 38.1999 19.25 38.1999 23.775C38.1749 28.2 34.6999 31.8 30.2999 31.95Z" stroke="#EEEEEE" stroke-width="2" stroke-linecap="round" stroke-linejoin="round"/>
<path d="M46.8501 48.4503C42.4001 52.5253 36.5001 55.0003 30.0001 55.0003C23.5001 55.0003 17.6001 52.5253 13.1501 48.4503C13.4001 46.1003 14.9001 43.8003 17.5751 42.0003C24.4251 37.4503 35.6251 37.4503 42.4251 42.0003C45.1001 43.8003 46.6001 46.1003 46.8501 48.4503Z" stroke="#EEEEEE" stroke-width="2" stroke-linecap="round" stroke-linejoin="round"/>
<path d="M30 55C43.807 55 55 43.807 55 30C55 16.1929 43.807 5 30 5C16.1929 5 5 16.1929 5 30C5 43.807 16.1929 55 30 55Z" stroke="#EEEEEE" stroke-width="2" stroke-linecap="round" stroke-linejoin="round"/>
</g>
</svg>
